<?xml version="1.0" standalone="no"?>
<!DOCTYPE svg PUBLIC "-//W3C//DTD SVG 20010904//EN"
 "http://www.w3.org/TR/2001/REC-SVG-20010904/DTD/svg10.dtd">
<svg version="1.0" xmlns="http://www.w3.org/2000/svg"
 width="672.000000pt" height="672.000000pt" viewBox="0 0 672.000000 672.000000"
 preserveAspectRatio="xMidYMid meet">
<metadata>
Created by potrace 1.14, written by Peter Selinger 2001-2017
</metadata>
<g transform="translate(0.000000,672.000000) scale(0.100000,-0.100000)"
fill="#000000" stroke="none">
<path d="M18 5718 c10 -18 40 -71 64 -118 42 -78 142 -264 215 -400 17 -30 49
-91 73 -135 23 -44 54 -101 69 -127 l26 -48 995 -1 c547 0 1010 -2 1028 -5 74
-9 163 -78 205 -159 30 -58 30 -183 -1 -242 -40 -77 -124 -143 -198 -158 -16
-3 -411 -5 -878 -5 -673 0 -846 -3 -838 -13 5 -6 33 -57 62 -112 99 -189 153
-290 160 -300 4 -5 31 -55 60 -110 30 -55 71 -131 92 -170 21 -38 49 -89 61
-113 l22 -43 700 2 c638 2 704 0 735 -15 81 -39 81 -39 418 -666 19 -36 45
-83 57 -105 12 -22 49 -89 81 -150 32 -60 68 -128 81 -150 12 -22 26 -47 30
-55 4 -8 40 -77 81 -152 l74 -138 430 0 430 0 -47 88 c-74 135 -112 207 -149
275 -18 34 -49 91 -69 127 -138 255 -297 552 -297 556 0 2 -10 21 -23 42 -13
20 -54 96 -92 167 -37 72 -71 135 -75 140 -4 6 -33 60 -65 120 -32 61 -61 115
-65 120 -29 41 -120 229 -120 249 0 13 8 34 19 47 54 70 124 249 157 403 9 39
17 132 19 206 8 342 -94 599 -335 840 -141 141 -297 238 -465 289 -167 51
-143 50 -1488 51 l-1259 0 20 -32z"/>
<path d="M3289 5746 c-2 -3 -4 -48 -3 -100 l2 -96 55 -57 c177 -186 293 -405
332 -632 3 -19 9 -39 12 -44 10 -17 12 -328 2 -387 -23 -144 -22 -140 -49
-231 -26 -90 -87 -236 -111 -267 -17 -23 -17 -25 5 -65 13 -23 45 -82 71 -132
26 -49 60 -112 75 -140 15 -27 45 -84 67 -125 61 -112 110 -204 170 -313 29
-54 53 -99 53 -101 0 -3 17 -35 38 -73 22 -37 59 -106 84 -153 25 -47 70 -130
100 -185 30 -55 81 -149 113 -210 86 -161 154 -287 171 -315 8 -14 22 -40 30
-57 l14 -33 1100 0 1099 0 0 430 0 430 -1172 1 c-645 0 -1179 2 -1188 4 -9 1
-36 12 -60 22 -81 37 -132 108 -146 205 -5 29 -8 632 -8 1341 l1 1287 -426 0
c-235 0 -429 -2 -431 -4z"/>
<path d="M2232 1600 l53 -100 128 0 c71 0 126 -4 123 -8 -2 -4 -18 -84 -35
-177 -34 -190 -38 -211 -44 -240 -3 -11 -8 -39 -12 -62 l-7 -43 120 0 120 0 6
27 c3 16 17 91 31 168 13 77 26 149 29 160 2 11 9 55 16 98 l13 77 197 0 197
0 16 93 c10 51 17 96 17 100 0 4 -230 7 -511 7 l-510 0 53 -100z"/>
<path d="M3267 1693 c-5 -9 -13 -48 -22 -100 -3 -18 -7 -48 -10 -65 -3 -18
-10 -55 -15 -83 -5 -27 -12 -66 -15 -85 -3 -19 -10 -57 -15 -85 -5 -27 -12
-67 -16 -89 -3 -21 -8 -48 -10 -60 -9 -39 -24 -131 -24 -143 0 -10 103 -13
484 -13 l484 0 6 43 c4 23 7 44 7 47 0 3 4 24 9 48 l7 42 -286 0 c-157 -1
-321 -1 -364 0 l-77 0 6 33 c3 17 7 41 9 52 1 11 3 23 4 27 0 4 85 7 189 7
103 0 255 0 338 0 l152 1 11 63 c6 35 11 68 11 74 0 8 -99 11 -322 11 -178 1
-329 1 -336 1 -9 1 -11 13 -6 49 3 26 10 49 14 52 5 3 167 5 362 4 l354 0 2
25 c1 14 8 54 15 89 l14 62 -478 0 c-263 0 -480 -3 -482 -7z"/>
<path d="M4634 1603 c-44 -54 -84 -105 -91 -113 -7 -8 -102 -126 -213 -263
-110 -136 -200 -250 -200 -252 0 -3 63 -5 139 -5 l140 0 47 60 c26 33 50 61
53 61 3 1 117 2 253 3 l247 1 27 -62 26 -63 135 0 c74 0 132 3 130 8 -3 4 -25
50 -49 102 -24 52 -100 213 -168 358 l-123 262 -137 0 -138 0 -78 -97z m228
-135 c9 -24 32 -80 51 -124 l35 -82 -154 0 c-114 0 -152 3 -146 12 5 6 33 43
63 81 29 39 56 72 59 75 3 3 18 22 33 43 15 20 31 37 35 37 4 0 15 -19 24 -42z"/>
<path d="M5509 1688 c0 -7 -2 -20 -4 -28 -2 -8 -6 -31 -9 -50 -4 -19 -8 -46
-11 -60 -3 -14 -7 -41 -10 -60 -3 -19 -10 -60 -16 -90 -17 -93 -61 -343 -65
-375 -3 -16 -7 -36 -9 -42 -3 -10 24 -13 115 -13 66 0 120 3 120 8 0 4 7 48
16 97 22 132 23 138 29 165 3 14 9 51 15 84 10 60 19 81 27 58 3 -7 10 -18 17
-25 7 -6 45 -55 86 -107 135 -174 125 -165 198 -166 71 -1 58 -9 198 116 78
69 166 146 198 171 l28 22 -6 -29 c-10 -50 -57 -317 -63 -356 l-5 -38 115 0
115 0 7 38 c5 20 10 46 12 57 28 159 43 246 48 275 3 19 8 42 10 50 2 8 7 35
10 60 3 25 8 52 10 60 2 8 7 35 10 60 3 25 10 61 15 80 6 19 10 38 10 43 0 4
-51 7 -112 7 l-113 0 -225 -196 c-124 -108 -227 -201 -231 -205 -3 -5 -36 30
-74 79 -38 48 -111 140 -162 205 l-93 117 -100 0 c-73 0 -100 -3 -101 -12z"/>
</g>
</svg>
